<?xml version="1.0" standalone="no"?>
<!DOCTYPE svg PUBLIC "-//W3C//DTD SVG 20010904//EN"
 "http://www.w3.org/TR/2001/REC-SVG-20010904/DTD/svg10.dtd">
<svg version="1.0" xmlns="http://www.w3.org/2000/svg"
 width="400.000000pt" height="400.000000pt" viewBox="0 0 400.000000 400.000000"
 preserveAspectRatio="xMidYMid meet">
<metadata>
Created by potrace 1.14, written by Peter Selinger 2001-2017
</metadata>
<g transform="translate(0.000000,400.000000) scale(0.100000,-0.100000)"
fill="#000000" stroke="none">
<path d="M3230 2765 c-453 -77 -824 -432 -914 -875 l-13 -65 -106 -3 -107 -3
0 -79 0 -80 40 0 40 0 0 -65 0 -65 -120 0 c-125 0 -171 -11 -184 -45 -3 -9 -6
-95 -6 -191 0 -172 0 -175 25 -199 l24 -25 431 0 431 0 24 25 c25 24 25 26 25
202 -1 124 -4 183 -13 194 -25 32 -56 39 -176 39 l-121 0 0 65 0 65 40 0 40 0
0 80 0 80 -110 0 c-60 0 -110 3 -110 8 0 43 52 200 95 290 l54 113 43 -25 c85
-49 161 -43 242 19 24 18 46 31 49 29 10 -10 107 -6 141 6 20 6 53 31 75 56
38 44 39 44 107 44 110 1 197 52 247 145 18 32 22 59 23 140 3 140 5 135 -74
134 -37 -1 -101 -7 -142 -14z"/>
<path d="M1079 2011 l-29 -29 0 -551 0 -550 24 -28 c32 -37 93 -39 130 -4 l26
24 0 558 0 557 -31 26 c-41 35 -83 34 -120 -3z"/>
<path d="M714 1823 c-12 -2 -32 -15 -45 -29 l-24 -26 0 -340 0 -340 28 -24
c31 -26 90 -32 118 -11 37 28 39 50 39 377 0 355 -2 368 -61 389 -18 6 -32 10
-33 10 -1 -1 -11 -4 -22 -6z"/>
<path d="M1514 1820 c-12 -4 -31 -21 -43 -36 -20 -26 -21 -35 -21 -355 l0
-327 26 -31 c35 -42 98 -44 135 -5 l24 26 0 339 0 339 -25 24 c-29 29 -66 39
-96 26z"/>
</g>
</svg>
